<mxfile host="app.diagrams.net" agent="Mozilla/5.0 (Windows NT 10.0; Win64; x64) AppleWebKit/537.36 (KHTML, like Gecko) Chrome/135.0.0.0 Safari/537.36" version="26.2.13">
  <diagram id="wxtWD6aqQy0A_fOg86At" name="CarRentalX">
    <mxGraphModel dx="2612" dy="939" grid="1" gridSize="10" guides="1" tooltips="1" connect="1" arrows="1" fold="1" page="1" pageScale="1" pageWidth="827" pageHeight="1169" math="0" shadow="0">
      <root>
        <mxCell id="0" />
        <mxCell id="1" parent="0" />
        <mxCell id="K5WOBPAgn83qoYaSb-qf-1" value="CLIENTE" style="rounded=0;whiteSpace=wrap;html=1;fillColor=#dae8fc;strokeColor=#6c8ebf;" parent="1" vertex="1">
          <mxGeometry x="719" y="250" width="140" height="50" as="geometry" />
        </mxCell>
        <mxCell id="K5WOBPAgn83qoYaSb-qf-2" value="idCliente" style="ellipse;whiteSpace=wrap;html=1;fontStyle=5;fillColor=#dae8fc;strokeColor=#6c8ebf;" parent="1" vertex="1">
          <mxGeometry x="555" y="390" width="120" height="60" as="geometry" />
        </mxCell>
        <mxCell id="K5WOBPAgn83qoYaSb-qf-3" value="nombreCliente" style="ellipse;whiteSpace=wrap;html=1;" parent="1" vertex="1">
          <mxGeometry x="500" y="310" width="120" height="60" as="geometry" />
        </mxCell>
        <mxCell id="K5WOBPAgn83qoYaSb-qf-4" value="emailCliente" style="ellipse;whiteSpace=wrap;html=1;" parent="1" vertex="1">
          <mxGeometry x="555" y="140" width="120" height="60" as="geometry" />
        </mxCell>
        <mxCell id="K5WOBPAgn83qoYaSb-qf-5" value="telefonoCliente" style="ellipse;whiteSpace=wrap;html=1;" parent="1" vertex="1">
          <mxGeometry x="675" y="100" width="120" height="60" as="geometry" />
        </mxCell>
        <mxCell id="K5WOBPAgn83qoYaSb-qf-6" value="idVehiculo" style="ellipse;whiteSpace=wrap;html=1;dashed=1;" parent="1" vertex="1">
          <mxGeometry x="855" y="650" width="120" height="60" as="geometry" />
        </mxCell>
        <mxCell id="K5WOBPAgn83qoYaSb-qf-12" value="tipoIdentificacionCliente" style="ellipse;whiteSpace=wrap;html=1;" parent="1" vertex="1">
          <mxGeometry x="825" y="110" width="140" height="70" as="geometry" />
        </mxCell>
        <mxCell id="bBzYvq17O7Nioja5EeyQ-1" value="dni" style="ellipse;whiteSpace=wrap;html=1;" parent="1" vertex="1">
          <mxGeometry x="945" y="60" width="100" height="40" as="geometry" />
        </mxCell>
        <mxCell id="bBzYvq17O7Nioja5EeyQ-2" value="pasaporte" style="ellipse;whiteSpace=wrap;html=1;" parent="1" vertex="1">
          <mxGeometry x="986" y="110" width="100" height="40" as="geometry" />
        </mxCell>
        <mxCell id="PGqBgB8u2-_fexIsKEld-1" value="licenciaConduccion" style="ellipse;whiteSpace=wrap;html=1;" parent="1" vertex="1">
          <mxGeometry x="965" y="320" width="120" height="60" as="geometry" />
        </mxCell>
        <mxCell id="PGqBgB8u2-_fexIsKEld-2" value="VEHICULO" style="rounded=0;whiteSpace=wrap;html=1;fillColor=#dae8fc;strokeColor=#6c8ebf;" parent="1" vertex="1">
          <mxGeometry x="440" y="590" width="140" height="50" as="geometry" />
        </mxCell>
        <mxCell id="PGqBgB8u2-_fexIsKEld-3" value="idVehiculo" style="ellipse;whiteSpace=wrap;html=1;fontStyle=5;fillColor=#dae8fc;strokeColor=#6c8ebf;" parent="1" vertex="1">
          <mxGeometry x="270" y="520" width="120" height="60" as="geometry" />
        </mxCell>
        <mxCell id="PGqBgB8u2-_fexIsKEld-4" value="matricula" style="ellipse;whiteSpace=wrap;html=1;" parent="1" vertex="1">
          <mxGeometry x="220" y="600" width="120" height="60" as="geometry" />
        </mxCell>
        <mxCell id="PGqBgB8u2-_fexIsKEld-5" value="kilometraje" style="ellipse;whiteSpace=wrap;html=1;" parent="1" vertex="1">
          <mxGeometry x="270" y="680" width="120" height="60" as="geometry" />
        </mxCell>
        <mxCell id="PGqBgB8u2-_fexIsKEld-6" value="tipoVehiculo" style="ellipse;whiteSpace=wrap;html=1;" parent="1" vertex="1">
          <mxGeometry x="380" y="730" width="120" height="60" as="geometry" />
        </mxCell>
        <mxCell id="PGqBgB8u2-_fexIsKEld-7" value="estadoVehiculo" style="ellipse;whiteSpace=wrap;html=1;" parent="1" vertex="1">
          <mxGeometry x="520" y="740" width="120" height="60" as="geometry" />
        </mxCell>
        <mxCell id="PGqBgB8u2-_fexIsKEld-8" value="precioDiario" style="ellipse;whiteSpace=wrap;html=1;" parent="1" vertex="1">
          <mxGeometry x="620" y="680" width="120" height="60" as="geometry" />
        </mxCell>
        <mxCell id="PGqBgB8u2-_fexIsKEld-9" value="disponible" style="ellipse;whiteSpace=wrap;html=1;" parent="1" vertex="1">
          <mxGeometry x="380" y="830" width="100" height="40" as="geometry" />
        </mxCell>
        <mxCell id="PGqBgB8u2-_fexIsKEld-10" value="reservado" style="ellipse;whiteSpace=wrap;html=1;" parent="1" vertex="1">
          <mxGeometry x="460" y="890" width="100" height="40" as="geometry" />
        </mxCell>
        <mxCell id="PGqBgB8u2-_fexIsKEld-11" value="alquilado" style="ellipse;whiteSpace=wrap;html=1;" parent="1" vertex="1">
          <mxGeometry x="590" y="890" width="100" height="40" as="geometry" />
        </mxCell>
        <mxCell id="PGqBgB8u2-_fexIsKEld-12" value="mantenimiento" style="ellipse;whiteSpace=wrap;html=1;" parent="1" vertex="1">
          <mxGeometry x="634" y="830" width="100" height="40" as="geometry" />
        </mxCell>
        <mxCell id="PGqBgB8u2-_fexIsKEld-14" value="RESERVA" style="rounded=0;whiteSpace=wrap;html=1;fillColor=#dae8fc;strokeColor=#6c8ebf;" parent="1" vertex="1">
          <mxGeometry x="1036" y="590" width="140" height="50" as="geometry" />
        </mxCell>
        <mxCell id="PGqBgB8u2-_fexIsKEld-15" value="idReserva" style="ellipse;whiteSpace=wrap;html=1;fontStyle=5;fillColor=#dae8fc;strokeColor=#6c8ebf;" parent="1" vertex="1">
          <mxGeometry x="1236" y="520" width="120" height="60" as="geometry" />
        </mxCell>
        <mxCell id="PGqBgB8u2-_fexIsKEld-16" value="fechaInicio" style="ellipse;whiteSpace=wrap;html=1;" parent="1" vertex="1">
          <mxGeometry x="1236" y="610" width="120" height="60" as="geometry" />
        </mxCell>
        <mxCell id="PGqBgB8u2-_fexIsKEld-17" value="fechaFinal" style="ellipse;whiteSpace=wrap;html=1;" parent="1" vertex="1">
          <mxGeometry x="1215" y="690" width="120" height="60" as="geometry" />
        </mxCell>
        <mxCell id="PGqBgB8u2-_fexIsKEld-18" value="estadoReserva" style="ellipse;whiteSpace=wrap;html=1;" parent="1" vertex="1">
          <mxGeometry x="1075" y="720" width="120" height="60" as="geometry" />
        </mxCell>
        <mxCell id="PGqBgB8u2-_fexIsKEld-19" value="tramitando" style="ellipse;whiteSpace=wrap;html=1;" parent="1" vertex="1">
          <mxGeometry x="1225" y="780" width="100" height="40" as="geometry" />
        </mxCell>
        <mxCell id="PGqBgB8u2-_fexIsKEld-20" value="confirmada" style="ellipse;whiteSpace=wrap;html=1;" parent="1" vertex="1">
          <mxGeometry x="1215" y="840" width="100" height="40" as="geometry" />
        </mxCell>
        <mxCell id="PGqBgB8u2-_fexIsKEld-21" value="cancelada" style="ellipse;whiteSpace=wrap;html=1;" parent="1" vertex="1">
          <mxGeometry x="1125" y="890" width="100" height="40" as="geometry" />
        </mxCell>
        <mxCell id="PGqBgB8u2-_fexIsKEld-22" value="finalizada" style="ellipse;whiteSpace=wrap;html=1;" parent="1" vertex="1">
          <mxGeometry x="1025" y="850" width="100" height="40" as="geometry" />
        </mxCell>
        <mxCell id="PGqBgB8u2-_fexIsKEld-24" value="REALIZA" style="rhombus;whiteSpace=wrap;html=1;" parent="1" vertex="1">
          <mxGeometry x="865" y="390" width="80" height="80" as="geometry" />
        </mxCell>
        <mxCell id="PGqBgB8u2-_fexIsKEld-25" value="" style="endArrow=none;html=1;rounded=0;entryX=0.75;entryY=1;entryDx=0;entryDy=0;exitX=0;exitY=0.5;exitDx=0;exitDy=0;" parent="1" source="PGqBgB8u2-_fexIsKEld-24" target="K5WOBPAgn83qoYaSb-qf-1" edge="1">
          <mxGeometry width="50" height="50" relative="1" as="geometry">
            <mxPoint x="775" y="460" as="sourcePoint" />
            <mxPoint x="825" y="410" as="targetPoint" />
          </mxGeometry>
        </mxCell>
        <mxCell id="PGqBgB8u2-_fexIsKEld-26" value="" style="endArrow=none;html=1;rounded=0;entryX=0;entryY=0;entryDx=0;entryDy=0;exitX=1;exitY=0.5;exitDx=0;exitDy=0;" parent="1" source="PGqBgB8u2-_fexIsKEld-24" target="PGqBgB8u2-_fexIsKEld-14" edge="1">
          <mxGeometry width="50" height="50" relative="1" as="geometry">
            <mxPoint x="915" y="400" as="sourcePoint" />
            <mxPoint x="834" y="310" as="targetPoint" />
          </mxGeometry>
        </mxCell>
        <mxCell id="lz1v4lZ3FRW70OoBYC48-1" value="SOLICITA" style="rhombus;whiteSpace=wrap;html=1;" parent="1" vertex="1">
          <mxGeometry x="749" y="575" width="80" height="80" as="geometry" />
        </mxCell>
        <mxCell id="lz1v4lZ3FRW70OoBYC48-2" value="" style="endArrow=none;html=1;rounded=0;entryX=0;entryY=0.5;entryDx=0;entryDy=0;exitX=1;exitY=0.5;exitDx=0;exitDy=0;" parent="1" source="lz1v4lZ3FRW70OoBYC48-1" target="PGqBgB8u2-_fexIsKEld-14" edge="1">
          <mxGeometry width="50" height="50" relative="1" as="geometry">
            <mxPoint x="955" y="440" as="sourcePoint" />
            <mxPoint x="1046" y="600" as="targetPoint" />
          </mxGeometry>
        </mxCell>
        <mxCell id="lz1v4lZ3FRW70OoBYC48-3" value="" style="endArrow=none;html=1;rounded=0;entryX=1;entryY=0.5;entryDx=0;entryDy=0;exitX=0;exitY=0.5;exitDx=0;exitDy=0;" parent="1" source="lz1v4lZ3FRW70OoBYC48-1" target="PGqBgB8u2-_fexIsKEld-2" edge="1">
          <mxGeometry width="50" height="50" relative="1" as="geometry">
            <mxPoint x="839" y="625" as="sourcePoint" />
            <mxPoint x="1046" y="625" as="targetPoint" />
          </mxGeometry>
        </mxCell>
        <mxCell id="lz1v4lZ3FRW70OoBYC48-4" value="" style="endArrow=none;html=1;rounded=0;entryX=0;entryY=1;entryDx=0;entryDy=0;exitX=1;exitY=0.5;exitDx=0;exitDy=0;" parent="1" source="K5WOBPAgn83qoYaSb-qf-2" target="K5WOBPAgn83qoYaSb-qf-1" edge="1">
          <mxGeometry width="50" height="50" relative="1" as="geometry">
            <mxPoint x="875" y="440" as="sourcePoint" />
            <mxPoint x="834" y="310" as="targetPoint" />
          </mxGeometry>
        </mxCell>
        <mxCell id="lz1v4lZ3FRW70OoBYC48-5" value="" style="endArrow=none;html=1;rounded=0;entryX=0;entryY=0.5;entryDx=0;entryDy=0;exitX=1;exitY=0.5;exitDx=0;exitDy=0;" parent="1" source="K5WOBPAgn83qoYaSb-qf-3" target="K5WOBPAgn83qoYaSb-qf-1" edge="1">
          <mxGeometry width="50" height="50" relative="1" as="geometry">
            <mxPoint x="644" y="330" as="sourcePoint" />
            <mxPoint x="729" y="310" as="targetPoint" />
          </mxGeometry>
        </mxCell>
        <mxCell id="lz1v4lZ3FRW70OoBYC48-7" value="" style="endArrow=none;html=1;rounded=0;entryX=0;entryY=0;entryDx=0;entryDy=0;exitX=1;exitY=1;exitDx=0;exitDy=0;" parent="1" source="K5WOBPAgn83qoYaSb-qf-4" target="K5WOBPAgn83qoYaSb-qf-1" edge="1">
          <mxGeometry width="50" height="50" relative="1" as="geometry">
            <mxPoint x="630" y="250" as="sourcePoint" />
            <mxPoint x="729" y="285" as="targetPoint" />
          </mxGeometry>
        </mxCell>
        <mxCell id="lz1v4lZ3FRW70OoBYC48-8" value="" style="endArrow=none;html=1;rounded=0;entryX=0.25;entryY=0;entryDx=0;entryDy=0;exitX=0.5;exitY=1;exitDx=0;exitDy=0;" parent="1" source="K5WOBPAgn83qoYaSb-qf-5" target="K5WOBPAgn83qoYaSb-qf-1" edge="1">
          <mxGeometry width="50" height="50" relative="1" as="geometry">
            <mxPoint x="667" y="201" as="sourcePoint" />
            <mxPoint x="729" y="260" as="targetPoint" />
          </mxGeometry>
        </mxCell>
        <mxCell id="lz1v4lZ3FRW70OoBYC48-9" value="" style="endArrow=none;html=1;rounded=0;entryX=0.75;entryY=0;entryDx=0;entryDy=0;exitX=0.5;exitY=1;exitDx=0;exitDy=0;" parent="1" source="K5WOBPAgn83qoYaSb-qf-12" target="K5WOBPAgn83qoYaSb-qf-1" edge="1">
          <mxGeometry width="50" height="50" relative="1" as="geometry">
            <mxPoint x="745" y="170" as="sourcePoint" />
            <mxPoint x="764" y="260" as="targetPoint" />
          </mxGeometry>
        </mxCell>
        <mxCell id="lz1v4lZ3FRW70OoBYC48-11" value="" style="endArrow=none;html=1;rounded=0;entryX=1;entryY=0;entryDx=0;entryDy=0;exitX=0;exitY=1;exitDx=0;exitDy=0;" parent="1" source="bBzYvq17O7Nioja5EeyQ-1" target="K5WOBPAgn83qoYaSb-qf-12" edge="1">
          <mxGeometry width="50" height="50" relative="1" as="geometry">
            <mxPoint x="895" y="180" as="sourcePoint" />
            <mxPoint x="834" y="260" as="targetPoint" />
          </mxGeometry>
        </mxCell>
        <mxCell id="lz1v4lZ3FRW70OoBYC48-12" value="" style="endArrow=none;html=1;rounded=0;entryX=1;entryY=0.5;entryDx=0;entryDy=0;exitX=0;exitY=1;exitDx=0;exitDy=0;" parent="1" source="bBzYvq17O7Nioja5EeyQ-2" target="K5WOBPAgn83qoYaSb-qf-12" edge="1">
          <mxGeometry width="50" height="50" relative="1" as="geometry">
            <mxPoint x="921" y="84" as="sourcePoint" />
            <mxPoint x="895" y="120" as="targetPoint" />
          </mxGeometry>
        </mxCell>
        <mxCell id="lz1v4lZ3FRW70OoBYC48-13" value="" style="endArrow=none;html=1;rounded=0;entryX=1;entryY=0.75;entryDx=0;entryDy=0;exitX=0;exitY=0.5;exitDx=0;exitDy=0;" parent="1" source="PGqBgB8u2-_fexIsKEld-1" target="K5WOBPAgn83qoYaSb-qf-1" edge="1">
          <mxGeometry width="50" height="50" relative="1" as="geometry">
            <mxPoint x="895" y="180" as="sourcePoint" />
            <mxPoint x="834" y="260" as="targetPoint" />
          </mxGeometry>
        </mxCell>
        <mxCell id="HbtjSrExlHGsBTf0uBJo-1" value="" style="endArrow=none;html=1;rounded=0;entryX=1;entryY=0.25;entryDx=0;entryDy=0;exitX=0;exitY=1;exitDx=0;exitDy=0;" parent="1" source="PGqBgB8u2-_fexIsKEld-15" target="PGqBgB8u2-_fexIsKEld-14" edge="1">
          <mxGeometry width="50" height="50" relative="1" as="geometry">
            <mxPoint x="955" y="440" as="sourcePoint" />
            <mxPoint x="1046" y="600" as="targetPoint" />
          </mxGeometry>
        </mxCell>
        <mxCell id="HbtjSrExlHGsBTf0uBJo-2" value="" style="endArrow=none;html=1;rounded=0;entryX=1;entryY=0.75;entryDx=0;entryDy=0;exitX=0;exitY=0.5;exitDx=0;exitDy=0;" parent="1" source="PGqBgB8u2-_fexIsKEld-16" target="PGqBgB8u2-_fexIsKEld-14" edge="1">
          <mxGeometry width="50" height="50" relative="1" as="geometry">
            <mxPoint x="1264" y="581" as="sourcePoint" />
            <mxPoint x="1186" y="600" as="targetPoint" />
          </mxGeometry>
        </mxCell>
        <mxCell id="HbtjSrExlHGsBTf0uBJo-3" value="" style="endArrow=none;html=1;rounded=0;entryX=0.75;entryY=1;entryDx=0;entryDy=0;exitX=0;exitY=0;exitDx=0;exitDy=0;" parent="1" source="PGqBgB8u2-_fexIsKEld-17" target="PGqBgB8u2-_fexIsKEld-14" edge="1">
          <mxGeometry width="50" height="50" relative="1" as="geometry">
            <mxPoint x="1246" y="650" as="sourcePoint" />
            <mxPoint x="1186" y="638" as="targetPoint" />
          </mxGeometry>
        </mxCell>
        <mxCell id="HbtjSrExlHGsBTf0uBJo-4" value="" style="endArrow=none;html=1;rounded=0;entryX=0.5;entryY=1;entryDx=0;entryDy=0;exitX=0.5;exitY=0;exitDx=0;exitDy=0;" parent="1" source="PGqBgB8u2-_fexIsKEld-18" target="PGqBgB8u2-_fexIsKEld-14" edge="1">
          <mxGeometry width="50" height="50" relative="1" as="geometry">
            <mxPoint x="1204" y="699" as="sourcePoint" />
            <mxPoint x="1151" y="650" as="targetPoint" />
          </mxGeometry>
        </mxCell>
        <mxCell id="HbtjSrExlHGsBTf0uBJo-5" value="" style="endArrow=none;html=1;rounded=0;entryX=0.25;entryY=1;entryDx=0;entryDy=0;exitX=1;exitY=0;exitDx=0;exitDy=0;" parent="1" source="K5WOBPAgn83qoYaSb-qf-6" target="PGqBgB8u2-_fexIsKEld-14" edge="1">
          <mxGeometry width="50" height="50" relative="1" as="geometry">
            <mxPoint x="1106" y="720" as="sourcePoint" />
            <mxPoint x="1116" y="650" as="targetPoint" />
          </mxGeometry>
        </mxCell>
        <mxCell id="HbtjSrExlHGsBTf0uBJo-6" value="" style="endArrow=none;html=1;rounded=0;entryX=0.5;entryY=1;entryDx=0;entryDy=0;exitX=1;exitY=0;exitDx=0;exitDy=0;" parent="1" source="PGqBgB8u2-_fexIsKEld-22" target="PGqBgB8u2-_fexIsKEld-18" edge="1">
          <mxGeometry width="50" height="50" relative="1" as="geometry">
            <mxPoint x="1145" y="730" as="sourcePoint" />
            <mxPoint x="1155" y="660" as="targetPoint" />
          </mxGeometry>
        </mxCell>
        <mxCell id="HbtjSrExlHGsBTf0uBJo-7" value="" style="endArrow=none;html=1;rounded=0;entryX=0.6;entryY=0.983;entryDx=0;entryDy=0;exitX=0.5;exitY=0;exitDx=0;exitDy=0;entryPerimeter=0;" parent="1" source="PGqBgB8u2-_fexIsKEld-21" target="PGqBgB8u2-_fexIsKEld-18" edge="1">
          <mxGeometry width="50" height="50" relative="1" as="geometry">
            <mxPoint x="1120" y="866" as="sourcePoint" />
            <mxPoint x="1145" y="790" as="targetPoint" />
          </mxGeometry>
        </mxCell>
        <mxCell id="HbtjSrExlHGsBTf0uBJo-8" value="" style="endArrow=none;html=1;rounded=0;entryX=0.667;entryY=0.967;entryDx=0;entryDy=0;exitX=0;exitY=0.5;exitDx=0;exitDy=0;entryPerimeter=0;" parent="1" source="PGqBgB8u2-_fexIsKEld-20" target="PGqBgB8u2-_fexIsKEld-18" edge="1">
          <mxGeometry width="50" height="50" relative="1" as="geometry">
            <mxPoint x="1185" y="900" as="sourcePoint" />
            <mxPoint x="1157" y="789" as="targetPoint" />
          </mxGeometry>
        </mxCell>
        <mxCell id="HbtjSrExlHGsBTf0uBJo-9" value="" style="endArrow=none;html=1;rounded=0;entryX=0.775;entryY=0.933;entryDx=0;entryDy=0;exitX=0;exitY=0.5;exitDx=0;exitDy=0;entryPerimeter=0;" parent="1" source="PGqBgB8u2-_fexIsKEld-19" target="PGqBgB8u2-_fexIsKEld-18" edge="1">
          <mxGeometry width="50" height="50" relative="1" as="geometry">
            <mxPoint x="1225" y="870" as="sourcePoint" />
            <mxPoint x="1165" y="788" as="targetPoint" />
          </mxGeometry>
        </mxCell>
        <mxCell id="HbtjSrExlHGsBTf0uBJo-10" value="" style="endArrow=none;html=1;rounded=0;entryX=0;entryY=0;entryDx=0;entryDy=0;exitX=0.75;exitY=1;exitDx=0;exitDy=0;" parent="1" source="PGqBgB8u2-_fexIsKEld-2" target="PGqBgB8u2-_fexIsKEld-8" edge="1">
          <mxGeometry width="50" height="50" relative="1" as="geometry">
            <mxPoint x="955" y="440" as="sourcePoint" />
            <mxPoint x="1046" y="600" as="targetPoint" />
          </mxGeometry>
        </mxCell>
        <mxCell id="HbtjSrExlHGsBTf0uBJo-11" value="" style="endArrow=none;html=1;rounded=0;entryX=0.5;entryY=0;entryDx=0;entryDy=0;exitX=0.5;exitY=1;exitDx=0;exitDy=0;" parent="1" source="PGqBgB8u2-_fexIsKEld-2" target="PGqBgB8u2-_fexIsKEld-7" edge="1">
          <mxGeometry width="50" height="50" relative="1" as="geometry">
            <mxPoint x="555" y="650" as="sourcePoint" />
            <mxPoint x="648" y="699" as="targetPoint" />
          </mxGeometry>
        </mxCell>
        <mxCell id="HbtjSrExlHGsBTf0uBJo-12" value="" style="endArrow=none;html=1;rounded=0;entryX=0.5;entryY=0;entryDx=0;entryDy=0;exitX=0.25;exitY=1;exitDx=0;exitDy=0;" parent="1" source="PGqBgB8u2-_fexIsKEld-2" target="PGqBgB8u2-_fexIsKEld-6" edge="1">
          <mxGeometry width="50" height="50" relative="1" as="geometry">
            <mxPoint x="520" y="650" as="sourcePoint" />
            <mxPoint x="590" y="750" as="targetPoint" />
          </mxGeometry>
        </mxCell>
        <mxCell id="HbtjSrExlHGsBTf0uBJo-13" value="" style="endArrow=none;html=1;rounded=0;entryX=1;entryY=0.5;entryDx=0;entryDy=0;exitX=0;exitY=1;exitDx=0;exitDy=0;" parent="1" source="PGqBgB8u2-_fexIsKEld-2" target="PGqBgB8u2-_fexIsKEld-5" edge="1">
          <mxGeometry width="50" height="50" relative="1" as="geometry">
            <mxPoint x="485" y="650" as="sourcePoint" />
            <mxPoint x="450" y="740" as="targetPoint" />
          </mxGeometry>
        </mxCell>
        <mxCell id="HbtjSrExlHGsBTf0uBJo-14" value="" style="endArrow=none;html=1;rounded=0;entryX=1;entryY=0.5;entryDx=0;entryDy=0;exitX=0;exitY=0.75;exitDx=0;exitDy=0;" parent="1" source="PGqBgB8u2-_fexIsKEld-2" target="PGqBgB8u2-_fexIsKEld-4" edge="1">
          <mxGeometry width="50" height="50" relative="1" as="geometry">
            <mxPoint x="450" y="650" as="sourcePoint" />
            <mxPoint x="400" y="720" as="targetPoint" />
          </mxGeometry>
        </mxCell>
        <mxCell id="HbtjSrExlHGsBTf0uBJo-15" value="" style="endArrow=none;html=1;rounded=0;entryX=1;entryY=1;entryDx=0;entryDy=0;exitX=0;exitY=0.5;exitDx=0;exitDy=0;" parent="1" source="PGqBgB8u2-_fexIsKEld-2" target="PGqBgB8u2-_fexIsKEld-3" edge="1">
          <mxGeometry width="50" height="50" relative="1" as="geometry">
            <mxPoint x="450" y="638" as="sourcePoint" />
            <mxPoint x="350" y="640" as="targetPoint" />
          </mxGeometry>
        </mxCell>
        <mxCell id="HbtjSrExlHGsBTf0uBJo-16" value="" style="endArrow=none;html=1;rounded=0;entryX=0;entryY=1;entryDx=0;entryDy=0;exitX=1;exitY=0.5;exitDx=0;exitDy=0;" parent="1" source="PGqBgB8u2-_fexIsKEld-9" target="PGqBgB8u2-_fexIsKEld-7" edge="1">
          <mxGeometry width="50" height="50" relative="1" as="geometry">
            <mxPoint x="450" y="625" as="sourcePoint" />
            <mxPoint x="382" y="581" as="targetPoint" />
          </mxGeometry>
        </mxCell>
        <mxCell id="HbtjSrExlHGsBTf0uBJo-17" value="" style="endArrow=none;html=1;rounded=0;entryX=0.358;entryY=0.983;entryDx=0;entryDy=0;exitX=1;exitY=0;exitDx=0;exitDy=0;entryPerimeter=0;" parent="1" source="PGqBgB8u2-_fexIsKEld-10" target="PGqBgB8u2-_fexIsKEld-7" edge="1">
          <mxGeometry width="50" height="50" relative="1" as="geometry">
            <mxPoint x="490" y="860" as="sourcePoint" />
            <mxPoint x="548" y="801" as="targetPoint" />
          </mxGeometry>
        </mxCell>
        <mxCell id="HbtjSrExlHGsBTf0uBJo-18" value="" style="endArrow=none;html=1;rounded=0;entryX=0.646;entryY=0.971;entryDx=0;entryDy=0;exitX=0;exitY=0;exitDx=0;exitDy=0;entryPerimeter=0;" parent="1" source="PGqBgB8u2-_fexIsKEld-11" target="PGqBgB8u2-_fexIsKEld-7" edge="1">
          <mxGeometry width="50" height="50" relative="1" as="geometry">
            <mxPoint x="555" y="906" as="sourcePoint" />
            <mxPoint x="590" y="810" as="targetPoint" />
          </mxGeometry>
        </mxCell>
        <mxCell id="HbtjSrExlHGsBTf0uBJo-19" value="" style="endArrow=none;html=1;rounded=0;entryX=1;entryY=1;entryDx=0;entryDy=0;exitX=0;exitY=0;exitDx=0;exitDy=0;" parent="1" source="PGqBgB8u2-_fexIsKEld-12" target="PGqBgB8u2-_fexIsKEld-7" edge="1">
          <mxGeometry width="50" height="50" relative="1" as="geometry">
            <mxPoint x="615" y="906" as="sourcePoint" />
            <mxPoint x="615" y="809" as="targetPoint" />
          </mxGeometry>
        </mxCell>
        <mxCell id="m01LL7FNwtIEChglDAJR-1" value="(1,n)" style="text;html=1;align=center;verticalAlign=middle;resizable=0;points=[];autosize=1;strokeColor=none;fillColor=none;" parent="1" vertex="1">
          <mxGeometry x="945" y="390" width="50" height="30" as="geometry" />
        </mxCell>
        <mxCell id="m01LL7FNwtIEChglDAJR-2" value="(1,n)" style="text;html=1;align=center;verticalAlign=middle;resizable=0;points=[];autosize=1;strokeColor=none;fillColor=none;" parent="1" vertex="1">
          <mxGeometry x="764" y="530" width="50" height="30" as="geometry" />
        </mxCell>
        <mxCell id="0ROeKDqxwZHGAGZ_5KPy-1" value="P01 - C&lt;div&gt;CarRentalX&lt;/div&gt;" style="whiteSpace=wrap;html=1;aspect=fixed;fontStyle=1" parent="1" vertex="1">
          <mxGeometry x="275" y="110" width="91" height="91" as="geometry" />
        </mxCell>
        <mxCell id="OXe9qbSqUxRCxdN3RMLt-1" value="apellido&lt;span style=&quot;background-color: transparent; color: light-dark(rgb(0, 0, 0), rgb(255, 255, 255));&quot;&gt;Cliente&lt;/span&gt;" style="ellipse;whiteSpace=wrap;html=1;" parent="1" vertex="1">
          <mxGeometry x="495" y="230" width="120" height="60" as="geometry" />
        </mxCell>
        <mxCell id="STMhIPoE2XiKKvYTKfZY-1" value="identificacionCliente" style="ellipse;whiteSpace=wrap;html=1;" parent="1" vertex="1">
          <mxGeometry x="975" y="201" width="120" height="60" as="geometry" />
        </mxCell>
        <mxCell id="STMhIPoE2XiKKvYTKfZY-2" value="" style="endArrow=none;html=1;rounded=0;entryX=1;entryY=0.25;entryDx=0;entryDy=0;exitX=0.008;exitY=0.617;exitDx=0;exitDy=0;exitPerimeter=0;" parent="1" source="STMhIPoE2XiKKvYTKfZY-1" target="K5WOBPAgn83qoYaSb-qf-1" edge="1">
          <mxGeometry width="50" height="50" relative="1" as="geometry">
            <mxPoint x="975" y="360" as="sourcePoint" />
            <mxPoint x="869" y="298" as="targetPoint" />
          </mxGeometry>
        </mxCell>
        <mxCell id="STMhIPoE2XiKKvYTKfZY-3" value="idCliente" style="ellipse;whiteSpace=wrap;html=1;dashed=1;" parent="1" vertex="1">
          <mxGeometry x="935" y="720" width="120" height="60" as="geometry" />
        </mxCell>
        <mxCell id="STMhIPoE2XiKKvYTKfZY-4" value="" style="endArrow=none;html=1;rounded=0;exitX=0.758;exitY=0.067;exitDx=0;exitDy=0;exitPerimeter=0;" parent="1" source="STMhIPoE2XiKKvYTKfZY-3" edge="1">
          <mxGeometry width="50" height="50" relative="1" as="geometry">
            <mxPoint x="967" y="669" as="sourcePoint" />
            <mxPoint x="1089" y="640" as="targetPoint" />
          </mxGeometry>
        </mxCell>
        <mxCell id="STMhIPoE2XiKKvYTKfZY-5" value="" style="endArrow=none;html=1;rounded=0;entryX=0;entryY=0.25;entryDx=0;entryDy=0;exitX=1;exitY=0.5;exitDx=0;exitDy=0;" parent="1" source="OXe9qbSqUxRCxdN3RMLt-1" target="K5WOBPAgn83qoYaSb-qf-1" edge="1">
          <mxGeometry width="50" height="50" relative="1" as="geometry">
            <mxPoint x="630" y="350" as="sourcePoint" />
            <mxPoint x="729" y="285" as="targetPoint" />
          </mxGeometry>
        </mxCell>
        <mxCell id="07tsWtDDiTbbH0E1dXqb-1" value="EMPLEADOS" style="rounded=0;whiteSpace=wrap;html=1;fillColor=#dae8fc;strokeColor=#6c8ebf;" vertex="1" parent="1">
          <mxGeometry x="-230" y="580" width="140" height="50" as="geometry" />
        </mxCell>
        <mxCell id="07tsWtDDiTbbH0E1dXqb-2" value="idEmpleado" style="ellipse;whiteSpace=wrap;html=1;fontStyle=5;fillColor=#dae8fc;strokeColor=#6c8ebf;" vertex="1" parent="1">
          <mxGeometry x="-350" y="470" width="120" height="60" as="geometry" />
        </mxCell>
        <mxCell id="07tsWtDDiTbbH0E1dXqb-3" value="nombreEmpleado" style="ellipse;whiteSpace=wrap;html=1;" vertex="1" parent="1">
          <mxGeometry x="-456" y="520" width="120" height="60" as="geometry" />
        </mxCell>
        <mxCell id="07tsWtDDiTbbH0E1dXqb-4" value="apellidoEmpleado" style="ellipse;whiteSpace=wrap;html=1;" vertex="1" parent="1">
          <mxGeometry x="-470" y="610" width="120" height="60" as="geometry" />
        </mxCell>
        <mxCell id="07tsWtDDiTbbH0E1dXqb-5" value="telefonoEmpleado" style="ellipse;whiteSpace=wrap;html=1;" vertex="1" parent="1">
          <mxGeometry x="-416" y="700" width="120" height="60" as="geometry" />
        </mxCell>
        <mxCell id="07tsWtDDiTbbH0E1dXqb-6" value="emailEmpleado" style="ellipse;whiteSpace=wrap;html=1;" vertex="1" parent="1">
          <mxGeometry x="-326" y="760" width="120" height="60" as="geometry" />
        </mxCell>
        <mxCell id="07tsWtDDiTbbH0E1dXqb-7" value="cargoEmpleado" style="ellipse;whiteSpace=wrap;html=1;" vertex="1" parent="1">
          <mxGeometry x="-196" y="790" width="120" height="60" as="geometry" />
        </mxCell>
        <mxCell id="07tsWtDDiTbbH0E1dXqb-8" value="" style="endArrow=none;html=1;rounded=0;entryX=0.5;entryY=0;entryDx=0;entryDy=0;exitX=0.5;exitY=1;exitDx=0;exitDy=0;" edge="1" parent="1" target="07tsWtDDiTbbH0E1dXqb-1" source="07tsWtDDiTbbH0E1dXqb-43">
          <mxGeometry width="50" height="50" relative="1" as="geometry">
            <mxPoint x="-90" y="470" as="sourcePoint" />
            <mxPoint x="376" y="615" as="targetPoint" />
          </mxGeometry>
        </mxCell>
        <mxCell id="07tsWtDDiTbbH0E1dXqb-9" value="" style="endArrow=none;html=1;rounded=0;entryX=0.5;entryY=0;entryDx=0;entryDy=0;exitX=0.577;exitY=0.999;exitDx=0;exitDy=0;exitPerimeter=0;" edge="1" parent="1" source="07tsWtDDiTbbH0E1dXqb-1" target="07tsWtDDiTbbH0E1dXqb-7">
          <mxGeometry width="50" height="50" relative="1" as="geometry">
            <mxPoint x="-146" y="620" as="sourcePoint" />
            <mxPoint x="376" y="590" as="targetPoint" />
          </mxGeometry>
        </mxCell>
        <mxCell id="07tsWtDDiTbbH0E1dXqb-10" value="" style="endArrow=none;html=1;rounded=0;entryX=0.5;entryY=0;entryDx=0;entryDy=0;exitX=0.5;exitY=1;exitDx=0;exitDy=0;" edge="1" parent="1" source="07tsWtDDiTbbH0E1dXqb-1" target="07tsWtDDiTbbH0E1dXqb-6">
          <mxGeometry width="50" height="50" relative="1" as="geometry">
            <mxPoint x="-115" y="640" as="sourcePoint" />
            <mxPoint x="-22" y="689" as="targetPoint" />
          </mxGeometry>
        </mxCell>
        <mxCell id="07tsWtDDiTbbH0E1dXqb-11" value="" style="endArrow=none;html=1;rounded=0;entryX=0.5;entryY=0;entryDx=0;entryDy=0;exitX=0.25;exitY=1;exitDx=0;exitDy=0;" edge="1" parent="1" source="07tsWtDDiTbbH0E1dXqb-1" target="07tsWtDDiTbbH0E1dXqb-5">
          <mxGeometry width="50" height="50" relative="1" as="geometry">
            <mxPoint x="-150" y="640" as="sourcePoint" />
            <mxPoint x="-80" y="740" as="targetPoint" />
          </mxGeometry>
        </mxCell>
        <mxCell id="07tsWtDDiTbbH0E1dXqb-12" value="" style="endArrow=none;html=1;rounded=0;entryX=1;entryY=0.5;entryDx=0;entryDy=0;exitX=0;exitY=1;exitDx=0;exitDy=0;" edge="1" parent="1" source="07tsWtDDiTbbH0E1dXqb-1" target="07tsWtDDiTbbH0E1dXqb-4">
          <mxGeometry width="50" height="50" relative="1" as="geometry">
            <mxPoint x="-185" y="640" as="sourcePoint" />
            <mxPoint x="-220" y="730" as="targetPoint" />
          </mxGeometry>
        </mxCell>
        <mxCell id="07tsWtDDiTbbH0E1dXqb-13" value="" style="endArrow=none;html=1;rounded=0;entryX=1;entryY=0.5;entryDx=0;entryDy=0;exitX=0;exitY=0.75;exitDx=0;exitDy=0;" edge="1" parent="1" source="07tsWtDDiTbbH0E1dXqb-1" target="07tsWtDDiTbbH0E1dXqb-3">
          <mxGeometry width="50" height="50" relative="1" as="geometry">
            <mxPoint x="-220" y="640" as="sourcePoint" />
            <mxPoint x="-270" y="710" as="targetPoint" />
          </mxGeometry>
        </mxCell>
        <mxCell id="07tsWtDDiTbbH0E1dXqb-14" value="" style="endArrow=none;html=1;rounded=0;entryX=1;entryY=1;entryDx=0;entryDy=0;exitX=0;exitY=0.5;exitDx=0;exitDy=0;" edge="1" parent="1" source="07tsWtDDiTbbH0E1dXqb-1" target="07tsWtDDiTbbH0E1dXqb-2">
          <mxGeometry width="50" height="50" relative="1" as="geometry">
            <mxPoint x="-220" y="628" as="sourcePoint" />
            <mxPoint x="-320" y="630" as="targetPoint" />
          </mxGeometry>
        </mxCell>
        <mxCell id="07tsWtDDiTbbH0E1dXqb-26" value="SUCURSAL" style="rounded=0;whiteSpace=wrap;html=1;fillColor=#dae8fc;strokeColor=#6c8ebf;" vertex="1" parent="1">
          <mxGeometry x="40" y="230" width="140" height="50" as="geometry" />
        </mxCell>
        <mxCell id="07tsWtDDiTbbH0E1dXqb-27" value="idSucursal" style="ellipse;whiteSpace=wrap;html=1;fontStyle=5;fillColor=#dae8fc;strokeColor=#6c8ebf;" vertex="1" parent="1">
          <mxGeometry x="40" y="90" width="120" height="60" as="geometry" />
        </mxCell>
        <mxCell id="07tsWtDDiTbbH0E1dXqb-28" value="nombreSucursal" style="ellipse;whiteSpace=wrap;html=1;" vertex="1" parent="1">
          <mxGeometry x="-110" y="120" width="120" height="60" as="geometry" />
        </mxCell>
        <mxCell id="07tsWtDDiTbbH0E1dXqb-29" value="direccionSucursal" style="ellipse;whiteSpace=wrap;html=1;" vertex="1" parent="1">
          <mxGeometry x="-180" y="190" width="120" height="60" as="geometry" />
        </mxCell>
        <mxCell id="07tsWtDDiTbbH0E1dXqb-30" value="telefonoSucursal" style="ellipse;whiteSpace=wrap;html=1;" vertex="1" parent="1">
          <mxGeometry x="-10" y="375" width="120" height="60" as="geometry" />
        </mxCell>
        <mxCell id="07tsWtDDiTbbH0E1dXqb-31" value="emailSucursal" style="ellipse;whiteSpace=wrap;html=1;" vertex="1" parent="1">
          <mxGeometry x="140" y="390" width="120" height="60" as="geometry" />
        </mxCell>
        <mxCell id="07tsWtDDiTbbH0E1dXqb-33" value="" style="endArrow=none;html=1;rounded=0;entryX=1;entryY=0.5;entryDx=0;entryDy=0;exitX=0;exitY=0.5;exitDx=0;exitDy=0;" edge="1" parent="1" target="07tsWtDDiTbbH0E1dXqb-26" source="07tsWtDDiTbbH0E1dXqb-40">
          <mxGeometry width="50" height="50" relative="1" as="geometry">
            <mxPoint x="349" y="255" as="sourcePoint" />
            <mxPoint x="646" y="265" as="targetPoint" />
          </mxGeometry>
        </mxCell>
        <mxCell id="07tsWtDDiTbbH0E1dXqb-35" value="" style="endArrow=none;html=1;rounded=0;entryX=0.5;entryY=0;entryDx=0;entryDy=0;exitX=0.5;exitY=1;exitDx=0;exitDy=0;" edge="1" parent="1" source="07tsWtDDiTbbH0E1dXqb-26" target="07tsWtDDiTbbH0E1dXqb-31">
          <mxGeometry width="50" height="50" relative="1" as="geometry">
            <mxPoint x="155" y="290" as="sourcePoint" />
            <mxPoint x="248" y="339" as="targetPoint" />
          </mxGeometry>
        </mxCell>
        <mxCell id="07tsWtDDiTbbH0E1dXqb-36" value="" style="endArrow=none;html=1;rounded=0;entryX=0.5;entryY=0;entryDx=0;entryDy=0;exitX=0.25;exitY=1;exitDx=0;exitDy=0;" edge="1" parent="1" source="07tsWtDDiTbbH0E1dXqb-26" target="07tsWtDDiTbbH0E1dXqb-30">
          <mxGeometry width="50" height="50" relative="1" as="geometry">
            <mxPoint x="120" y="290" as="sourcePoint" />
            <mxPoint x="190" y="390" as="targetPoint" />
          </mxGeometry>
        </mxCell>
        <mxCell id="07tsWtDDiTbbH0E1dXqb-37" value="" style="endArrow=none;html=1;rounded=0;entryX=1;entryY=0.5;entryDx=0;entryDy=0;exitX=0;exitY=0.25;exitDx=0;exitDy=0;" edge="1" parent="1" source="07tsWtDDiTbbH0E1dXqb-26" target="07tsWtDDiTbbH0E1dXqb-29">
          <mxGeometry width="50" height="50" relative="1" as="geometry">
            <mxPoint x="85" y="290" as="sourcePoint" />
            <mxPoint x="50" y="380" as="targetPoint" />
          </mxGeometry>
        </mxCell>
        <mxCell id="07tsWtDDiTbbH0E1dXqb-38" value="" style="endArrow=none;html=1;rounded=0;entryX=1;entryY=1;entryDx=0;entryDy=0;exitX=0.382;exitY=0.04;exitDx=0;exitDy=0;exitPerimeter=0;" edge="1" parent="1" source="07tsWtDDiTbbH0E1dXqb-26" target="07tsWtDDiTbbH0E1dXqb-28">
          <mxGeometry width="50" height="50" relative="1" as="geometry">
            <mxPoint x="50" y="290" as="sourcePoint" />
            <mxPoint y="360" as="targetPoint" />
          </mxGeometry>
        </mxCell>
        <mxCell id="07tsWtDDiTbbH0E1dXqb-39" value="" style="endArrow=none;html=1;rounded=0;entryX=0.5;entryY=1;entryDx=0;entryDy=0;exitX=0.5;exitY=0;exitDx=0;exitDy=0;" edge="1" parent="1" source="07tsWtDDiTbbH0E1dXqb-26" target="07tsWtDDiTbbH0E1dXqb-27">
          <mxGeometry width="50" height="50" relative="1" as="geometry">
            <mxPoint x="50" y="278" as="sourcePoint" />
            <mxPoint x="-50" y="280" as="targetPoint" />
          </mxGeometry>
        </mxCell>
        <mxCell id="07tsWtDDiTbbH0E1dXqb-40" value="TIENEN" style="rhombus;whiteSpace=wrap;html=1;" vertex="1" parent="1">
          <mxGeometry x="350" y="360" width="80" height="80" as="geometry" />
        </mxCell>
        <mxCell id="07tsWtDDiTbbH0E1dXqb-42" value="" style="endArrow=none;html=1;rounded=0;entryX=1;entryY=0.5;entryDx=0;entryDy=0;exitX=0.5;exitY=0;exitDx=0;exitDy=0;" edge="1" parent="1" source="PGqBgB8u2-_fexIsKEld-2" target="07tsWtDDiTbbH0E1dXqb-40">
          <mxGeometry width="50" height="50" relative="1" as="geometry">
            <mxPoint x="360" y="410" as="sourcePoint" />
            <mxPoint x="190" y="265" as="targetPoint" />
          </mxGeometry>
        </mxCell>
        <mxCell id="07tsWtDDiTbbH0E1dXqb-43" value="TRABAJAN" style="rhombus;whiteSpace=wrap;html=1;" vertex="1" parent="1">
          <mxGeometry x="-120" y="420" width="80" height="80" as="geometry" />
        </mxCell>
        <mxCell id="07tsWtDDiTbbH0E1dXqb-44" value="" style="endArrow=none;html=1;rounded=0;entryX=0.5;entryY=0;entryDx=0;entryDy=0;exitX=0;exitY=0.75;exitDx=0;exitDy=0;" edge="1" parent="1" source="07tsWtDDiTbbH0E1dXqb-26" target="07tsWtDDiTbbH0E1dXqb-43">
          <mxGeometry width="50" height="50" relative="1" as="geometry">
            <mxPoint x="-70" y="455" as="sourcePoint" />
            <mxPoint x="-150" y="590" as="targetPoint" />
          </mxGeometry>
        </mxCell>
        <mxCell id="07tsWtDDiTbbH0E1dXqb-45" value="(1,1)" style="text;html=1;align=center;verticalAlign=middle;resizable=0;points=[];autosize=1;strokeColor=none;fillColor=none;" vertex="1" parent="1">
          <mxGeometry x="366" y="310" width="50" height="30" as="geometry" />
        </mxCell>
        <mxCell id="07tsWtDDiTbbH0E1dXqb-46" value="(1:n)" style="text;html=1;align=center;verticalAlign=middle;resizable=0;points=[];autosize=1;strokeColor=none;fillColor=none;" vertex="1" parent="1">
          <mxGeometry x="-145" y="400" width="50" height="30" as="geometry" />
        </mxCell>
        <mxCell id="07tsWtDDiTbbH0E1dXqb-47" value="idSucursal" style="ellipse;whiteSpace=wrap;html=1;dashed=1;" vertex="1" parent="1">
          <mxGeometry x="-60" y="740" width="120" height="60" as="geometry" />
        </mxCell>
        <mxCell id="07tsWtDDiTbbH0E1dXqb-48" value="" style="endArrow=none;html=1;rounded=0;entryX=0;entryY=0;entryDx=0;entryDy=0;exitX=0.75;exitY=1;exitDx=0;exitDy=0;" edge="1" parent="1" source="07tsWtDDiTbbH0E1dXqb-1" target="07tsWtDDiTbbH0E1dXqb-47">
          <mxGeometry width="50" height="50" relative="1" as="geometry">
            <mxPoint x="-139" y="640" as="sourcePoint" />
            <mxPoint x="-126" y="800" as="targetPoint" />
          </mxGeometry>
        </mxCell>
        <mxCell id="07tsWtDDiTbbH0E1dXqb-49" value="idSucursal" style="ellipse;whiteSpace=wrap;html=1;dashed=1;" vertex="1" parent="1">
          <mxGeometry x="640" y="500" width="120" height="60" as="geometry" />
        </mxCell>
        <mxCell id="07tsWtDDiTbbH0E1dXqb-50" value="" style="endArrow=none;html=1;rounded=0;exitX=0.75;exitY=0;exitDx=0;exitDy=0;" edge="1" parent="1" source="PGqBgB8u2-_fexIsKEld-2" target="07tsWtDDiTbbH0E1dXqb-49">
          <mxGeometry width="50" height="50" relative="1" as="geometry">
            <mxPoint x="-115" y="640" as="sourcePoint" />
            <mxPoint x="-33" y="759" as="targetPoint" />
          </mxGeometry>
        </mxCell>
      </root>
    </mxGraphModel>
  </diagram>
</mxfile>
